<svg width="24" height="24" viewBox="0 0 24 24" fill="none" xmlns="http://www.w3.org/2000/svg">
<path d="M9.75 5.25H11.25V6.75H9.75V5.25ZM9.75 8.25H11.25V9.75H9.75V8.25ZM9.75 11.25H11.25V12.75H9.75V11.25ZM9.75 14.25H11.25V15.75H9.75V14.25ZM12.75 5.25H14.25V6.75H12.75V5.25ZM12.75 8.25H14.25V9.75H12.75V8.25ZM12.75 11.25H14.25V12.75H12.75V11.25ZM12.75 14.25H14.25V15.75H12.75V14.25Z" fill="url(#paint0_linear_5602_227)"/>
<path d="M21 20.25H17.25V6.75H18.75V18C18.75 18.1989 18.829 18.3897 18.9697 18.5303C19.1103 18.671 19.3011 18.75 19.5 18.75C19.6989 18.75 19.8897 18.671 20.0303 18.5303C20.171 18.3897 20.25 18.1989 20.25 18V6C20.25 5.80109 20.171 5.61032 20.0303 5.46967C19.8897 5.32902 19.6989 5.25 19.5 5.25H17.25V3C17.25 2.80109 17.171 2.61032 17.0303 2.46967C16.8897 2.32902 16.6989 2.25 16.5 2.25H7.5C7.30109 2.25 7.11032 2.32902 6.96967 2.46967C6.82902 2.61032 6.75 2.80109 6.75 3V5.25H4.5C4.30109 5.25 4.11032 5.32902 3.96967 5.46967C3.82902 5.61032 3.75 5.80109 3.75 6V20.25H3C2.80109 20.25 2.61032 20.329 2.46967 20.4697C2.32902 20.6103 2.25 20.8011 2.25 21C2.25 21.1989 2.32902 21.3897 2.46967 21.5303C2.61032 21.671 2.80109 21.75 3 21.75H21C21.1989 21.75 21.3897 21.671 21.5303 21.5303C21.671 21.3897 21.75 21.1989 21.75 21C21.75 20.8011 21.671 20.6103 21.5303 20.4697C21.3897 20.329 21.1989 20.25 21 20.25ZM5.25 6.75H6.75V18C6.75 18.1989 6.82902 18.3897 6.96967 18.5303C7.11032 18.671 7.30109 18.75 7.5 18.75C7.69891 18.75 7.88968 18.671 8.03033 18.5303C8.17098 18.3897 8.25 18.1989 8.25 18V3.75H15.75V20.25H14.25V18C14.25 17.8011 14.171 17.6103 14.0303 17.4697C13.8897 17.329 13.6989 17.25 13.5 17.25H10.5C10.3011 17.25 10.1103 17.329 9.96967 17.4697C9.82902 17.6103 9.75 17.8011 9.75 18V20.25H5.25V6.75ZM12.75 20.25H11.25V18.75H12.75V20.25Z" fill="url(#paint1_linear_5602_227)"/>
<defs>
<linearGradient id="paint0_linear_5602_227" x1="12" y1="5.25" x2="12" y2="15.75" gradientUnits="userSpaceOnUse">
<stop stop-color="#3FD98B"/>
<stop offset="1" stop-color="#21AF68"/>
</linearGradient>
<linearGradient id="paint1_linear_5602_227" x1="12" y1="2.25" x2="12" y2="21.75" gradientUnits="userSpaceOnUse">
<stop stop-color="#3FD98B"/>
<stop offset="1" stop-color="#21AF68"/>
</linearGradient>
</defs>
</svg>
