<svg width="24" height="24" viewBox="0 0 24 24" fill="none" xmlns="http://www.w3.org/2000/svg">
<path fill-rule="evenodd" clip-rule="evenodd" d="M23 22.75H1V20.75H23V22.75Z" fill="url(#paint0_linear_5602_253)"/>
<path d="M8.75 6.74997H15.75V1.99997C15.75 1.58576 15.4142 1.24997 15 1.24997H3C2.58579 1.24997 2.25 1.58576 2.25 1.99997V5.24997H6V6.74997H2.25V9.24997H6V10.75H2.25V13.25H6V14.75H2.25V22C2.25 22.4142 2.58579 22.75 3 22.75H8.87803C8.79512 22.5154 8.75 22.2629 8.75 22V6.74997Z" fill="url(#paint1_linear_5602_253)"/>
<path d="M21 22.75C21.4142 22.75 21.75 22.4142 21.75 22V8.99997C21.75 8.58576 21.4142 8.24997 21 8.24997L11 8.24997C10.5858 8.24997 10.25 8.58576 10.25 8.99997L10.25 22C10.25 22.4142 10.5858 22.75 11 22.75H21ZM14 12.25L18 12.25V13.75L14 13.75L14 12.25ZM14 15.25H18V16.75H14V15.25ZM15 19H17V22H15V19Z" fill="url(#paint2_linear_5602_253)"/>
<defs>
<linearGradient id="paint0_linear_5602_253" x1="12" y1="20.75" x2="12" y2="22.75" gradientUnits="userSpaceOnUse">
<stop stop-color="#3FD98B"/>
<stop offset="1" stop-color="#21AF68"/>
</linearGradient>
<linearGradient id="paint1_linear_5602_253" x1="9" y1="1.24997" x2="9" y2="22.75" gradientUnits="userSpaceOnUse">
<stop stop-color="#3FD98B"/>
<stop offset="1" stop-color="#21AF68"/>
</linearGradient>
<linearGradient id="paint2_linear_5602_253" x1="16" y1="22.75" x2="16" y2="8.24997" gradientUnits="userSpaceOnUse">
<stop stop-color="#3FD98B"/>
<stop offset="1" stop-color="#21AF68"/>
</linearGradient>
</defs>
</svg>
