<svg width="24" height="24" viewBox="0 0 24 24" fill="none" xmlns="http://www.w3.org/2000/svg">
<g clip-path="url(#clip0_5602_268)">
<path d="M22.7812 21.3888H21.9513V6.56278C21.9513 6.14925 21.6149 5.81278 21.2013 5.81278H17.1686V4.23684C17.1686 3.82331 16.8321 3.48684 16.4186 3.48684H15.2691V2.65697C15.2691 2.24344 14.9326 1.90697 14.5191 1.90697H12.2812V0.75C12.2812 0.675408 12.2516 0.603871 12.1989 0.551126C12.1461 0.498382 12.0746 0.46875 12 0.46875C11.9254 0.46875 11.8539 0.498382 11.8011 0.551126C11.7484 0.603871 11.7188 0.675408 11.7188 0.75V1.90697H9.48094C9.06741 1.90697 8.73094 2.24344 8.73094 2.65697V3.48684H7.58142C7.16789 3.48684 6.83142 3.82331 6.83142 4.23684V5.81278H2.79867C2.38514 5.81278 2.04867 6.14925 2.04867 6.56278V21.3888H1.21875C0.805219 21.3888 0.46875 21.7253 0.46875 22.1388V22.7812C0.46875 23.1948 0.805219 23.5312 1.21875 23.5312H22.7812C23.1948 23.5312 23.5312 23.1948 23.5312 22.7812V22.1388C23.5312 21.7253 23.1948 21.3888 22.7812 21.3888ZM21.2014 6.37528C21.3048 6.37528 21.3889 6.45937 21.3889 6.56278V21.3888H17.1686V6.37528H21.2014ZM9.29344 2.65697C9.29344 2.55356 9.37753 2.46947 9.48094 2.46947H14.5191C14.6225 2.46947 14.7066 2.55356 14.7066 2.65697V3.48684H9.29344V2.65697ZM7.58142 4.04934H16.4186C16.522 4.04934 16.6061 4.13344 16.6061 4.23684V21.3888H15.5421V16.4781C15.5421 16.4035 15.5124 16.3319 15.4597 16.2792C15.4069 16.2264 15.3354 16.1968 15.2608 16.1968H8.73923C8.66464 16.1968 8.59311 16.2264 8.54036 16.2792C8.48762 16.3319 8.45798 16.4035 8.45798 16.4781V21.3888H7.39392V4.23684C7.39392 4.13344 7.47802 4.04934 7.58142 4.04934ZM9.02048 21.3888V16.7593H11.7188V21.3888H9.02048ZM12.2812 16.7593H14.9795V21.3888H12.2812V16.7593ZM2.61117 6.56278C2.61117 6.45937 2.69527 6.37528 2.79867 6.37528H6.83142V21.3888H2.61117V6.56278ZM22.9688 22.7812C22.9688 22.8847 22.8847 22.9688 22.7812 22.9688H1.21875C1.11534 22.9688 1.03125 22.8847 1.03125 22.7812V22.1388C1.03125 22.0354 1.11534 21.9513 1.21875 21.9513H22.7812C22.8847 21.9513 22.9688 22.0354 22.9688 22.1388V22.7812ZM5.53458 11.0048H3.90802C3.83342 11.0048 3.76189 11.0344 3.70914 11.0872C3.6564 11.1399 3.62677 11.2115 3.62677 11.286V12.9126C3.62677 12.9872 3.6564 13.0587 3.70914 13.1115C3.76189 13.1642 3.83342 13.1939 3.90802 13.1939H5.53458C5.60917 13.1939 5.68071 13.1642 5.73345 13.1115C5.7862 13.0587 5.81583 12.9872 5.81583 12.9126V11.286C5.81583 11.2115 5.7862 11.1399 5.73345 11.0872C5.68071 11.0344 5.60917 11.0048 5.53458 11.0048ZM5.25333 12.6314H4.18927V11.5673H5.25333V12.6314ZM5.53458 18.1357H3.90802C3.83342 18.1357 3.76189 18.1654 3.70914 18.2181C3.6564 18.2709 3.62677 18.3424 3.62677 18.417V20.0435C3.62677 20.1181 3.6564 20.1896 3.70914 20.2424C3.76189 20.2951 3.83342 20.3248 3.90802 20.3248H5.53458C5.60917 20.3248 5.68071 20.2951 5.73345 20.2424C5.7862 20.1896 5.81583 20.1181 5.81583 20.0435V18.417C5.81583 18.3424 5.7862 18.2709 5.73345 18.2181C5.68071 18.1654 5.60917 18.1357 5.53458 18.1357ZM5.25333 19.7623H4.18927V18.6982H5.25333V19.7623ZM5.53458 14.5702H3.90802C3.83342 14.5702 3.76189 14.5999 3.70914 14.6526C3.6564 14.7054 3.62677 14.7769 3.62677 14.8515V16.4781C3.62677 16.5527 3.6564 16.6242 3.70914 16.6769C3.76189 16.7297 3.83342 16.7593 3.90802 16.7593H5.53458C5.60917 16.7593 5.68071 16.7297 5.73345 16.6769C5.7862 16.6242 5.81583 16.5527 5.81583 16.4781V14.8515C5.81583 14.7769 5.7862 14.7054 5.73345 14.6526C5.68071 14.5999 5.60917 14.5702 5.53458 14.5702ZM5.25333 16.1968H4.18927V15.1327H5.25333V16.1968ZM5.53458 7.43934H3.90802C3.83342 7.43934 3.76189 7.46898 3.70914 7.52172C3.6564 7.57446 3.62677 7.646 3.62677 7.72059V9.34711C3.62677 9.4217 3.6564 9.49324 3.70914 9.54598C3.76189 9.59873 3.83342 9.62836 3.90802 9.62836H5.53458C5.60917 9.62836 5.68071 9.59873 5.73345 9.54598C5.7862 9.49324 5.81583 9.4217 5.81583 9.34711V7.72059C5.81583 7.646 5.7862 7.57446 5.73345 7.52172C5.68071 7.46898 5.60917 7.43934 5.53458 7.43934ZM5.25333 9.06586H4.18927V8.00184H5.25333V9.06586ZM18.4655 16.7593H20.092C20.1666 16.7593 20.2382 16.7297 20.2909 16.6769C20.3437 16.6242 20.3733 16.5527 20.3733 16.4781V14.8515C20.3733 14.7769 20.3437 14.7054 20.2909 14.6526C20.2382 14.5999 20.1666 14.5702 20.092 14.5702H18.4655C18.3909 14.5702 18.3193 14.5999 18.2666 14.6526C18.2139 14.7054 18.1842 14.7769 18.1842 14.8515V16.4781C18.1842 16.5527 18.2139 16.6242 18.2666 16.6769C18.3193 16.7297 18.3909 16.7593 18.4655 16.7593ZM18.7467 15.1327H19.8108V16.1968H18.7467V15.1327ZM18.4655 13.1939H20.092C20.1666 13.1939 20.2382 13.1642 20.2909 13.1115C20.3437 13.0587 20.3733 12.9872 20.3733 12.9126V11.286C20.3733 11.2115 20.3437 11.1399 20.2909 11.0872C20.2382 11.0344 20.1666 11.0048 20.092 11.0048H18.4655C18.3909 11.0048 18.3193 11.0344 18.2666 11.0872C18.2139 11.1399 18.1842 11.2115 18.1842 11.286V12.9126C18.1842 12.9872 18.2139 13.0587 18.2666 13.1115C18.3193 13.1642 18.3909 13.1939 18.4655 13.1939ZM18.7467 11.5673H19.8108V12.6314H18.7467V11.5673ZM18.4655 9.62836H20.092C20.1666 9.62836 20.2382 9.59873 20.2909 9.54598C20.3437 9.49324 20.3733 9.4217 20.3733 9.34711V7.72059C20.3733 7.646 20.3437 7.57446 20.2909 7.52172C20.2382 7.46898 20.1666 7.43934 20.092 7.43934H18.4655C18.3909 7.43934 18.3193 7.46898 18.2666 7.52172C18.2139 7.57446 18.1842 7.646 18.1842 7.72059V9.34711C18.1842 9.4217 18.2139 9.49324 18.2666 9.54598C18.3193 9.59873 18.3909 9.62836 18.4655 9.62836ZM18.7467 8.00184H19.8108V9.06586H18.7467V8.00184ZM18.4655 20.3248H20.092C20.1666 20.3248 20.2382 20.2951 20.2909 20.2424C20.3437 20.1896 20.3733 20.1181 20.3733 20.0435V18.417C20.3733 18.3424 20.3437 18.2709 20.2909 18.2181C20.2382 18.1654 20.1666 18.1357 20.092 18.1357H18.4655C18.3909 18.1357 18.3193 18.1654 18.2666 18.2181C18.2139 18.2709 18.1842 18.3424 18.1842 18.417V20.0435C18.1842 20.1181 18.2139 20.1896 18.2666 20.2424C18.3193 20.2951 18.3909 20.3248 18.4655 20.3248ZM18.7467 18.6982H19.8108V19.7623H18.7467V18.6982ZM8.73923 14.404H15.2608C15.3354 14.404 15.4069 14.3744 15.4596 14.3216C15.5124 14.2689 15.542 14.1973 15.542 14.1227V12.5429C15.542 12.4683 15.5124 12.3967 15.4596 12.344C15.4069 12.2912 15.3354 12.2616 15.2608 12.2616H8.73923C8.66464 12.2616 8.59311 12.2912 8.54036 12.344C8.48762 12.3967 8.45798 12.4683 8.45798 12.5429V14.1227C8.45798 14.1973 8.48762 14.2689 8.54036 14.3216C8.59311 14.3744 8.66464 14.404 8.73923 14.404ZM9.02048 12.8241H14.9795V13.8415H9.02048V12.8241ZM8.73923 7.27308H15.2608C15.3354 7.27308 15.4069 7.24345 15.4596 7.1907C15.5124 7.13796 15.542 7.06642 15.542 6.99183V5.41191C15.542 5.33731 15.5124 5.26578 15.4596 5.21303C15.4069 5.16029 15.3354 5.13066 15.2608 5.13066H8.73923C8.66464 5.13066 8.59311 5.16029 8.54036 5.21303C8.48762 5.26578 8.45798 5.33731 8.45798 5.41191V6.99183C8.45798 7.06642 8.48762 7.13796 8.54036 7.1907C8.59311 7.24345 8.66464 7.27308 8.73923 7.27308ZM9.02048 5.69316H14.9795V6.71058H9.02048V5.69316ZM8.73923 10.8386H15.2608C15.3354 10.8386 15.4069 10.8089 15.4596 10.7562C15.5124 10.7035 15.542 10.6319 15.542 10.5573V8.97741C15.542 8.90281 15.5124 8.83128 15.4596 8.77853C15.4069 8.72579 15.3354 8.69616 15.2608 8.69616H8.73923C8.66464 8.69616 8.59311 8.72579 8.54036 8.77853C8.48762 8.83128 8.45798 8.90281 8.45798 8.97741V10.5573C8.45798 10.6319 8.48762 10.7035 8.54036 10.7562C8.59311 10.8089 8.66464 10.8386 8.73923 10.8386ZM9.02048 9.25866H14.9795V10.2761H9.02048V9.25866Z" fill="url(#paint0_linear_5602_268)"/>
</g>
<defs>
<linearGradient id="paint0_linear_5602_268" x1="12" y1="0.46875" x2="12" y2="23.5312" gradientUnits="userSpaceOnUse">
<stop stop-color="#3FD98B"/>
<stop offset="1" stop-color="#21AF68"/>
</linearGradient>
<clipPath id="clip0_5602_268">
<rect width="24" height="24" fill="white"/>
</clipPath>
</defs>
</svg>
