<svg width="64" height="64" viewBox="0 0 64 64" fill="none" xmlns="http://www.w3.org/2000/svg">
<path d="M8.34003 8.88804C8.09998 8.88539 7.86225 8.93521 7.64346 9.03403C7.42468 9.13285 7.23012 9.27828 7.07341 9.46014C6.91669 9.642 6.80161 9.8559 6.73619 10.0869C6.67077 10.3179 6.65661 10.5603 6.6947 10.7974L13.684 53.2347C13.7712 53.7543 14.0388 54.2266 14.4397 54.5685C14.8406 54.9104 15.3492 55.1 15.876 55.104H49.412C49.8067 55.108 50.1898 54.9707 50.492 54.7169C50.7943 54.4631 50.9958 54.1095 51.06 53.72L58.0654 10.8134C58.1034 10.5763 58.0893 10.3339 58.0239 10.1029C57.9585 9.8719 57.8434 9.658 57.6867 9.47614C57.5299 9.29428 57.3354 9.14885 57.1166 9.05003C56.8978 8.95121 56.6601 8.90139 56.42 8.90404L8.34003 8.88804ZM37.7774 39.5574H27.0734L24.1747 24.4267H40.372L37.7774 39.5574Z" fill="#1E88E5"/>
<path d="M55.8272 24.4247H40.3722L37.7786 39.5585H27.0745L14.4355 54.5689C14.8358 54.9159 15.3468 55.1086 15.8765 55.1123H49.4212C49.816 55.1174 50.1994 54.9805 50.5016 54.7266C50.8039 54.4727 51.0049 54.1187 51.068 53.729L55.8272 24.4247Z" fill="url(#paint0_linear_4475_652)"/>
<defs>
<linearGradient id="paint0_linear_4475_652" x1="59.4007" y1="28.6569" x2="33.8592" y2="48.5993" gradientUnits="userSpaceOnUse">
<stop offset="0.18" stop-color="#1565C0"/>
<stop offset="1" stop-color="#1E88E5"/>
</linearGradient>
</defs>
</svg>
