<svg width="56" height="56" viewBox="0 0 56 56" fill="none" xmlns="http://www.w3.org/2000/svg">
<path d="M42.875 0H13.125C5.87626 0 0 5.87626 0 13.125V42.875C0 50.1237 5.87626 56 13.125 56H42.875C50.1237 56 56 50.1237 56 42.875V13.125C56 5.87626 50.1237 0 42.875 0Z" fill="#242938"/>
<mask id="mask0_4475_532" style="mask-type:luminance" maskUnits="userSpaceOnUse" x="13" y="6" width="30" height="44">
<path d="M13.3438 6.125H42.5163V49.875H13.3438V6.125Z" fill="white"/>
</mask>
<g mask="url(#mask0_4475_532)">
<path d="M20.6395 49.875C24.6645 49.875 27.9311 46.6084 27.9311 42.5834V35.2916H20.6395C16.6145 35.2916 13.3477 38.5584 13.3477 42.5834C13.3477 46.6084 16.6145 49.875 20.6395 49.875Z" fill="#0ACF83"/>
<path d="M13.3477 27.9999C13.3477 23.9749 16.6145 20.7083 20.6395 20.7083H27.9311V35.2915H20.6395C16.6145 35.2915 13.3477 32.0249 13.3477 27.9999Z" fill="#A259FF"/>
<path d="M13.3477 13.4166C13.3477 9.39159 16.6145 6.125 20.6395 6.125H27.9311V20.7084H20.6395C16.6145 20.7084 13.3477 17.4416 13.3477 13.4166Z" fill="#F24E1E"/>
<path d="M27.9316 6.125H35.2232C39.2482 6.125 42.515 9.39159 42.515 13.4166C42.515 17.4416 39.2482 20.7084 35.2232 20.7084H27.9316V6.125Z" fill="#FF7262"/>
<path d="M42.515 27.9999C42.515 32.0249 39.2482 35.2915 35.2232 35.2915C31.1982 35.2915 27.9316 32.0249 27.9316 27.9999C27.9316 23.9749 31.1982 20.7083 35.2232 20.7083C39.2482 20.7083 42.515 23.9749 42.515 27.9999Z" fill="#1ABCFE"/>
</g>
</svg>
