<svg width="56" height="56" viewBox="0 0 56 56" fill="none" xmlns="http://www.w3.org/2000/svg">
<g clipPath="url(#clip0_4475_599)">
<rect x="0.953125" y="0.571411" width="54.8571" height="54.8571" rx="27.4286" fill="white"/>
<path fill-rule="evenodd" clip-rule="evenodd" d="M27.8205 0.571302C21.0621 -0.000126302 13.6483 3.80315 8.69 7.99987C3.73168 12.1966 0.746928 18.2856 0.746928 24.6216C-0.296178 31.0124 0.980944 37.5638 4.34996 43.1043C7.71897 48.6448 12.9602 52.813 19.1364 54.8638C20.499 55.1167 21.0122 54.2722 21.0122 53.5541C21.0122 52.8361 20.9849 50.7542 20.9758 48.4781C13.3454 50.1264 11.7331 45.2581 11.7331 45.2581C10.4886 42.0969 8.69 41.2659 8.69 41.2659C6.20103 39.5769 8.87623 39.6085 8.87623 39.6085C11.6332 39.8027 13.082 42.422 13.082 42.422C15.5256 46.5904 19.4997 45.3846 21.0621 44.6801C21.3074 42.9143 22.0205 41.713 22.8062 41.0311C16.711 40.3446 10.3069 38.0053 10.3069 27.5551C10.2691 24.8449 11.2806 22.224 13.132 20.2346C12.8504 19.5481 11.9102 16.7753 13.4 13.0089C13.4 13.0089 15.7027 12.2773 20.9441 15.8043C25.4398 14.5819 30.1831 14.5819 34.6788 15.8043C39.9156 12.2773 42.2138 13.0089 42.2138 13.0089C43.7081 16.7662 42.7679 19.5391 42.4863 20.2346C44.3436 22.2243 45.3572 24.8498 45.3159 27.5642C45.3159 38.0369 38.8982 40.3446 32.7939 41.0175C33.7749 41.8666 34.6515 43.5239 34.6515 46.071C34.6515 49.72 34.6197 52.6554 34.6197 53.5541C34.6197 54.2812 35.1148 55.1303 36.5046 54.8638C42.6816 52.8128 47.9233 48.6438 51.2922 43.1023C55.2386 37.7142 56.8543 31.013 55.81 24.6216C54.7657 18.2302 51.6271 11.6245 46.6671 7.4285C42.0957 2.2857 34.3328 0.572539 27.8205 0.571302Z" fill="#373737"/>
<path d="M11.3407 40.873C11.2816 41.0085 11.0636 41.0491 10.8865 40.9543C10.7094 40.8595 10.5777 40.6833 10.6412 40.5433C10.7048 40.4033 10.9183 40.3672 11.0954 40.462C11.2726 40.5569 11.4088 40.7375 11.3407 40.873Z" fill="#373737"/>
<path d="M12.4536 42.1059C12.3596 42.153 12.252 42.1662 12.1492 42.1431C12.0465 42.12 11.955 42.0622 11.8904 41.9794C11.7133 41.7898 11.677 41.5278 11.8132 41.4104C11.9495 41.293 12.1947 41.3472 12.3719 41.5369C12.549 41.7265 12.5899 41.9885 12.4536 42.1059Z" fill="#373737"/>
<path d="M13.5334 43.6731C13.3654 43.7905 13.0792 43.6731 12.9202 43.4383C12.8763 43.3962 12.8413 43.3457 12.8175 43.2898C12.7936 43.2339 12.7812 43.1738 12.7812 43.1131C12.7812 43.0524 12.7936 42.9923 12.8175 42.9365C12.8413 42.8806 12.8763 42.8301 12.9202 42.788C13.0883 42.6751 13.3745 42.788 13.5334 43.0183C13.6924 43.2486 13.6969 43.5557 13.5334 43.6731Z" fill="#373737"/>
<path d="M15.0011 45.1905C14.8512 45.3575 14.5469 45.3124 14.2971 45.0866C14.0473 44.8608 13.9883 44.5537 14.1381 44.3911C14.288 44.2285 14.5923 44.2737 14.8512 44.495C15.1101 44.7163 15.1601 45.0279 15.0011 45.1905Z" fill="#373737"/>
<path d="M17.0584 46.0757C16.9903 46.2879 16.6814 46.3828 16.3726 46.2925C16.0637 46.2021 15.8593 45.9492 15.9184 45.7325C15.9774 45.5157 16.2908 45.4163 16.6042 45.5157C16.9176 45.615 17.1174 45.8544 17.0584 46.0757Z" fill="#373737"/>
<path d="M19.3033 46.2292C19.3033 46.4505 19.049 46.6401 18.7219 46.6446C18.3949 46.6492 18.127 46.4685 18.127 46.2472C18.127 46.0259 18.3813 45.8363 18.7083 45.8317C19.0353 45.8272 19.3033 46.0034 19.3033 46.2292Z" fill="#373737"/>
<path d="M21.3926 45.8813C21.4335 46.1026 21.2064 46.333 20.8793 46.3871C20.5523 46.4413 20.2662 46.3104 20.2253 46.0936C20.1844 45.8768 20.4206 45.642 20.7385 45.5833C21.0565 45.5246 21.3517 45.6601 21.3926 45.8813Z" fill="#373737"/>
</g>
<defs>
<clipPath id="clip0_4475_599">
<rect x="0.953125" y="0.571411" width="54.8571" height="54.8571" rx="27.4286" fill="white"/>
</clipPath>
</defs>
</svg>
