<svg width="58" height="52" viewBox="0 0 58 52" fill="none" xmlns="http://www.w3.org/2000/svg">
<g clipPath="url(#clip0_4475_577)">
<path d="M29.0177 52.0165L39.3966 20.074H18.6387L29.0177 52.0165Z" fill="#E24329"/>
<path d="M29.0163 52.0163L18.6373 20.0737H4.0918L29.0163 52.0163Z" fill="#FC6D26"/>
<path d="M4.09318 20.0737L0.939251 29.781C0.798948 30.2125 0.798894 30.6774 0.939097 31.109C1.0793 31.5406 1.35256 31.9167 1.71969 32.1833L29.0177 52.0165L4.09318 20.0737Z" fill="#FCA326"/>
<path d="M4.0918 20.074H18.6373L12.3865 0.835056C12.0648 -0.154927 10.6643 -0.154707 10.3428 0.835056L4.0918 20.074Z" fill="#E24329"/>
<path d="M29.0176 52.0163L39.3964 20.0737H53.9421L29.0176 52.0163Z" fill="#FC6D26"/>
<path d="M53.9421 20.0737L57.096 29.781C57.2363 30.2126 57.2363 30.6774 57.0961 31.109C56.9558 31.5406 56.6825 31.9167 56.3154 32.1833L29.0176 52.0165L53.9421 20.0737Z" fill="#FCA326"/>
<path d="M53.9422 20.074H39.3965L45.6475 0.835056C45.9692 -0.154927 47.3697 -0.154707 47.6911 0.835056L53.9422 20.074Z" fill="#E24329"/>
</g>
<defs>
<clipPath id="clip0_4475_577">
<rect width="56.4068" height="52" fill="white" transform="translate(0.796875)"/>
</clipPath>
</defs>
</svg>
