<svg width="56" height="45" viewBox="0 0 56 45" fill="none" xmlns="http://www.w3.org/2000/svg">
<g clipPath="url(#clip0_4475_717)">
<path d="M37.2309 12.4119L42.092 7.55085L42.416 5.504C33.5578 -2.55078 19.4765 -1.63745 11.4909 7.40973C9.27306 9.92252 7.6275 13.0553 6.75 16.2902L8.49102 16.0449L18.213 14.4415L18.9636 13.6741C23.2882 8.92466 30.6002 8.2857 35.5935 12.3267L37.2309 12.4119Z" fill="#EA4335"/>
<path d="M49.0162 16.1472C47.8989 12.0325 45.6049 8.33354 42.4154 5.50403L35.5929 12.3266C37.0147 13.4884 38.1542 14.958 38.9253 16.6243C39.6965 18.2907 40.0792 20.1104 40.0446 21.9463V23.1574C43.3978 23.1574 46.1168 25.8759 46.1168 29.2293C46.1168 32.5829 43.398 35.2333 40.0446 35.2333H27.8835L26.6895 36.5296V43.8126L27.8835 44.9553H40.0444C48.767 45.0232 55.8934 38.0755 55.9613 29.3529C55.9816 26.7499 55.3582 24.1822 54.1465 21.8782C52.9349 19.5743 51.1725 17.6055 49.0162 16.1472Z" fill="#4285F4"/>
<path d="M15.7396 44.9555H27.8837V35.2333H15.7396C14.88 35.233 14.0305 35.0469 13.2495 34.6876L11.5267 35.2163L6.63149 40.0774L6.20508 41.7319C8.9503 43.8047 12.2997 44.9703 15.7396 44.9555Z" fill="#34A853"/>
<path d="M15.7389 13.4183C7.01631 13.4701 -0.0126412 20.5836 0.0393491 29.3064C0.0536732 31.7101 0.61646 34.0788 1.68483 36.232C2.7532 38.3853 4.29896 40.2662 6.20435 41.7316L13.2488 34.6876C10.1927 33.3066 8.83445 29.7101 10.2152 26.654C11.596 23.5979 15.1928 22.2396 18.2486 23.6202C19.5952 24.2287 20.6738 25.3073 21.2822 26.654L28.3267 19.6095C26.8481 17.6767 24.9425 16.112 22.7587 15.038C20.575 13.964 18.1724 13.4095 15.7389 13.4183Z" fill="#FBBC05"/>
</g>
<defs>
<clipPath id="clip0_4475_717">
<rect width="55.9223" height="45" fill="white" transform="translate(0.0390625)"/>
</clipPath>
</defs>
</svg>
