<svg width="57" height="56" viewBox="0 0 57 56" fill="none" xmlns="http://www.w3.org/2000/svg">
<g clipPath="url(#clip0_4475_621)">
<path d="M28.4716 0.836537C27.9767 0.861653 27.4918 0.984513 27.0454 1.19791L7.57621 10.5C7.07235 10.7407 6.62963 11.0908 6.28092 11.5244C5.93221 11.9581 5.68647 12.464 5.56196 13.0047L0.759521 33.8997C0.648645 34.3811 0.636237 34.8796 0.723031 35.3658C0.809826 35.852 0.994059 36.316 1.26483 36.7304C1.33054 36.8317 1.4012 36.9298 1.47658 37.0243L14.9516 53.7788C15.3004 54.2124 15.7432 54.5624 16.2471 54.803C16.751 55.0435 17.303 55.1684 17.8623 55.1683L39.4721 55.1631C40.0312 55.1635 40.5831 55.039 41.087 54.7989C41.5909 54.5588 42.0338 54.2093 42.3828 53.7762L55.853 37.0195C56.202 36.5858 56.4479 36.0797 56.5725 35.5387C56.6971 34.9977 56.6972 34.4359 56.5727 33.8949L51.762 12.9999C51.6375 12.4591 51.3918 11.9531 51.0431 11.5194C50.6944 11.0857 50.2516 10.7355 49.7477 10.4948L30.2768 1.19791C29.7151 0.929441 29.0944 0.805182 28.4716 0.836537Z" fill="#326CE5"/>
<path d="M28.6551 7.93762V7.942C28.0111 7.94812 27.4896 8.5265 27.4896 9.24225C27.4896 9.2545 27.4918 9.265 27.4918 9.27462C27.4909 9.37175 27.4865 9.489 27.4896 9.57387C27.5049 9.98775 27.5946 10.3036 27.6493 10.6829C27.7237 11.3042 27.7434 11.7972 27.7473 12.296L27.763 12.2242C27.756 11.8747 27.7388 11.5254 27.7114 11.1769C27.7722 11.7141 27.8164 12.2111 27.7928 12.6609C27.7862 12.5187 27.7661 12.3647 27.7639 12.2312L27.7482 12.303C27.7495 12.4548 27.7902 12.6486 27.7784 12.7943C27.7517 12.9212 27.651 13.0109 27.574 13.1189L27.5631 13.1719C27.6388 13.0726 27.718 12.9776 27.7644 12.8661C27.7057 13.0511 27.5806 13.2143 27.455 13.3447C27.49 13.2904 27.5189 13.2301 27.56 13.1762L27.5714 13.1237C27.508 13.2126 27.4721 13.3237 27.403 13.3906L27.4004 13.3932L27.3724 13.8832C26.6662 13.9419 25.9649 14.0495 25.2737 14.2052C22.3604 14.8643 19.7101 16.3777 17.662 18.5518C17.5325 18.4634 17.312 18.3068 17.2464 18.2578L17.2442 18.2556L17.2399 18.2565C17.0307 18.2845 16.8242 18.3471 16.553 18.1896C16.0337 17.8396 15.5594 17.3552 14.985 16.7721C14.722 16.4934 14.5313 16.2269 14.2176 15.9579C14.1463 15.8962 14.0382 15.8135 13.9586 15.7509C13.7258 15.5634 13.4391 15.4553 13.1405 15.4425C12.7795 15.4302 12.4317 15.5711 12.2042 15.8568C11.7995 16.3643 11.9295 17.14 12.4921 17.5893L12.5096 17.6007C12.5857 17.6632 12.6802 17.7433 12.7511 17.7958C13.0845 18.0412 13.3885 18.1672 13.718 18.3615C14.4154 18.792 14.9911 19.1481 15.4487 19.5773C15.6246 19.7641 15.6561 20.0979 15.6806 20.2445V20.248L16.0512 20.5779C14.0557 23.5852 13.1309 27.2979 13.6747 31.0805L13.1921 31.2222L13.1904 31.2249C13.0613 31.3916 12.8789 31.6501 12.6938 31.7267C12.0962 31.9148 11.4215 31.9839 10.6069 32.0692C10.2254 32.1012 9.89554 32.0828 9.48867 32.1598C9.39898 32.1773 9.27429 32.2088 9.17673 32.2316L9.16667 32.2342L9.14917 32.239C8.45792 32.4066 8.01167 33.0427 8.15604 33.6705C8.29911 34.2983 8.97548 34.6794 9.67154 34.5293L9.6886 34.5267H9.68948C9.69823 34.5245 9.7061 34.5201 9.71135 34.5188C9.8076 34.4978 9.92835 34.4746 10.0132 34.4514C10.4127 34.3442 10.7019 34.1876 11.0602 34.0507C11.8302 33.7742 12.468 33.5432 13.0889 33.4535C13.3435 33.4334 13.6156 33.6119 13.7525 33.6884L13.756 33.6902L14.26 33.604C15.4299 37.2239 17.8764 40.149 20.9739 41.9874L20.7639 42.4914L20.7652 42.4957C20.8414 42.6926 20.9245 42.9582 20.8689 43.1485C20.6432 43.733 20.2564 44.3512 19.8154 45.0411C19.6019 45.3596 19.3823 45.6077 19.1898 45.9734C19.143 46.0614 19.0848 46.1952 19.0402 46.2871C18.7383 46.9324 18.9597 47.6771 19.5402 47.9566C20.1243 48.2379 20.8484 47.9409 21.162 47.2947L21.1651 47.2912V47.2868C21.2089 47.1962 21.271 47.0777 21.309 46.9919C21.4744 46.6131 21.53 46.2889 21.6459 45.924H21.6446C21.9535 45.1483 22.1232 44.3372 22.5454 43.8336C22.6592 43.698 22.8464 43.6446 23.0424 43.5921L23.0468 43.5904L23.3093 43.1161C26.7654 44.4449 30.5898 44.4546 34.0525 43.1432C34.1278 43.2758 34.2617 43.5217 34.2989 43.5851L34.3006 43.5877L34.3041 43.5895C34.5045 43.6547 34.7189 43.6871 34.8947 43.9465C35.2106 44.4877 35.4276 45.1291 35.6919 45.9043C35.8078 46.2683 35.8655 46.5934 36.0309 46.9722C36.069 47.0597 36.1315 47.1801 36.1753 47.2715C36.4881 47.9199 37.2144 48.2178 37.7997 47.9365C38.3799 47.6565 38.6012 46.9127 38.2998 46.2674C38.2552 46.1756 38.1935 46.0408 38.1475 45.9529C37.9546 45.5871 37.735 45.3417 37.5219 45.0232C37.08 44.3332 36.7156 43.761 36.4894 43.1761C36.3962 42.8764 36.5052 42.6931 36.5795 42.4957L36.5822 42.4896L36.5778 42.4852C36.5624 42.4621 36.5492 42.4374 36.5384 42.4117C36.5198 42.3699 36.5023 42.3276 36.4859 42.2849C36.4509 42.193 36.4159 42.0915 36.3879 42.0241C39.607 40.121 41.9818 37.0869 43.0992 33.5826C43.251 33.6062 43.506 33.6504 43.5892 33.667L43.5935 33.6679L43.5975 33.6661C43.7733 33.5502 43.93 33.401 44.2428 33.4259C44.8636 33.5156 45.501 33.7471 46.2719 34.0236C46.6293 34.1601 46.919 34.3197 47.3189 34.4265C47.4037 34.4492 47.5245 34.4707 47.6207 34.4917C47.626 34.493 47.6334 34.4969 47.6426 34.4991H47.6435L47.661 34.5009C48.3566 34.6501 49.0334 34.2699 49.1765 33.6421C49.3195 33.0142 48.8742 32.3786 48.1825 32.2119C48.0832 32.1891 47.9414 32.1502 47.8434 32.1314C47.4365 32.0544 47.1071 32.0736 46.7247 32.0417C45.911 31.9564 45.2364 31.8872 44.6379 31.6991C44.3985 31.6059 44.2257 31.3176 44.14 31.1969L44.1374 31.1942L43.671 31.0586C43.9203 29.2468 43.8373 27.4047 43.426 25.6227C43.0138 23.8228 42.2749 22.1137 41.2459 20.5805C41.3675 20.4702 41.5894 20.2738 41.6537 20.2147L41.6567 20.2121V20.2077C41.676 19.9977 41.6594 19.7834 41.8733 19.5541C42.3305 19.1254 42.9075 18.7679 43.6045 18.3383C43.9343 18.1441 44.2406 18.0185 44.5731 17.7726C44.6492 17.7166 44.7516 17.6291 44.8304 17.5657C45.393 17.1168 45.5234 16.3416 45.1182 15.8336C44.7135 15.3261 43.9291 15.2793 43.3669 15.7277C43.2873 15.7912 43.1788 15.873 43.107 15.9347C42.7934 16.2051 42.5995 16.4711 42.337 16.7497C41.7626 17.3338 41.2879 17.8199 40.7682 18.1699C40.5464 18.2985 40.2178 18.2543 40.0669 18.2451H40.0634L39.6241 18.5597C37.0975 15.9137 33.661 14.2214 29.9597 13.8907C29.9488 13.7196 29.9395 13.5483 29.9317 13.3771V13.3736L29.9291 13.3709C29.776 13.2252 29.5966 13.1041 29.5511 12.7943V12.7934C29.5008 12.1687 29.5848 11.4954 29.6824 10.6829C29.737 10.3036 29.8276 9.98731 29.8425 9.57387C29.8464 9.47937 29.8403 9.34331 29.8403 9.24225C29.8403 8.52256 29.314 7.93762 28.6643 7.93762H28.6551ZM13.266 15.4775C13.3279 15.4862 13.3888 15.4988 13.4489 15.5151C13.3889 15.4983 13.3278 15.4857 13.266 15.4775ZM27.1952 16.9978L26.8509 23.0922L26.8259 23.1049L26.825 23.1106C26.8242 23.1324 26.8189 23.1521 26.8163 23.1731C26.8018 23.3042 26.7628 23.4314 26.7012 23.5481C26.6852 23.579 26.6675 23.6092 26.6483 23.6386C26.5686 23.7548 26.4658 23.8534 26.3464 23.9282C26.3158 23.9479 26.2821 23.9632 26.2493 23.9799C26.1294 24.0367 25.9998 24.0702 25.8674 24.0787C25.8477 24.0801 25.8289 24.0849 25.8092 24.0849C25.7873 24.0849 25.768 24.0752 25.7466 24.0735C25.6011 24.0597 25.4603 24.0143 25.334 23.9405C25.3144 23.9291 25.2929 23.9226 25.2741 23.9103L25.2715 23.9199L25.2732 23.9103C25.254 23.8985 25.2286 23.9033 25.2102 23.8897L25.205 23.8854L25.1954 23.8915L20.1987 20.3491C20.2394 20.3092 20.2827 20.2729 20.3242 20.2336C20.7653 19.814 21.2377 19.4286 21.7374 19.0807C21.841 19.0086 21.9443 18.9355 22.0502 18.8664C22.5817 18.5196 23.14 18.2156 23.7197 17.9572C23.8247 17.9104 23.9327 17.868 24.039 17.8238C24.613 17.5869 25.2046 17.395 25.8083 17.2498C25.8608 17.2367 25.9124 17.2205 25.9658 17.2087C26.2178 17.1518 26.4742 17.1186 26.7292 17.0779L26.7319 17.0669H26.7336L26.731 17.0779C26.8863 17.0534 27.0394 17.0166 27.1952 16.9978ZM30.1378 16.9987C30.224 17.0092 30.3084 17.0284 30.3942 17.0411C30.8601 17.1101 31.3217 17.206 31.7767 17.3281C31.9569 17.3765 32.1356 17.429 32.3126 17.4856C32.7644 17.6301 33.2075 17.8007 33.6395 17.9966C33.8035 18.071 33.9656 18.149 34.126 18.2307C34.5526 18.4486 34.966 18.6914 35.3642 18.9578C35.5141 19.0587 35.6621 19.1633 35.8082 19.2715C36.1895 19.5526 36.5541 19.8556 36.9002 20.1789C36.9632 20.2375 37.0302 20.2913 37.0919 20.3517L32.128 23.8709L32.1105 23.8644L32.1061 23.8679C32.0864 23.8819 32.065 23.8876 32.0449 23.9002C31.9274 23.9745 31.7962 24.0242 31.659 24.0464C31.6253 24.0516 31.592 24.0595 31.5584 24.0608C31.4101 24.0667 31.2624 24.0404 31.1252 23.9838C31.0853 23.9682 31.0465 23.9496 31.0093 23.9282C30.8816 23.8577 30.7703 23.7608 30.6829 23.6439C30.661 23.6137 30.6444 23.58 30.626 23.5476C30.5591 23.4277 30.5163 23.2959 30.5 23.1596C30.4974 23.1355 30.4887 23.1145 30.4869 23.09V23.0852L30.4821 23.0826L30.1378 16.9987ZM42.2443 22.3467C42.4578 22.7816 42.6498 23.2256 42.8205 23.6789C42.6496 23.226 42.4573 22.7814 42.2443 22.3467ZM18.3673 22.6486L22.9304 26.7296L22.9252 26.7541L22.9295 26.7576C23.3408 27.115 23.3977 27.7332 23.0577 28.1589C23.0455 28.1742 23.028 28.1838 23.0149 28.1982C22.8976 28.3282 22.7491 28.4261 22.5835 28.4826C22.5647 28.4892 22.5494 28.5014 22.5305 28.5067L22.5244 28.5076L22.5192 28.5281L16.6711 30.2169C16.6624 30.1359 16.6624 30.055 16.6549 29.9741C16.6113 29.4877 16.5978 28.9991 16.6147 28.5111C16.6202 28.3419 16.6294 28.173 16.6422 28.0044C16.679 27.5185 16.7457 27.0353 16.8422 26.5576C16.8775 26.3797 16.9173 26.2025 16.9616 26.0261C17.0775 25.5565 17.2222 25.0945 17.3947 24.6427C17.456 24.4811 17.5213 24.3211 17.5907 24.1627C17.7837 23.7139 18.0043 23.2775 18.2514 22.8559C18.2907 22.7877 18.3257 22.7159 18.3673 22.6486ZM38.9307 22.6516C38.9731 22.7207 39.0077 22.7934 39.0488 22.8629C39.2982 23.288 39.5217 23.7278 39.7182 24.1798C39.7838 24.3312 39.8485 24.4834 39.908 24.6374C40.0891 25.1071 40.2411 25.5875 40.363 26.0759C40.3827 26.1525 40.4085 26.2273 40.426 26.3047C40.7279 27.6181 40.8023 28.9293 40.6789 30.1967L34.8015 28.5036L34.7967 28.4787L34.7906 28.4769C34.7709 28.4717 34.7539 28.4621 34.735 28.4555C34.6082 28.4118 34.4908 28.3443 34.3894 28.2564C34.3637 28.2343 34.339 28.2109 34.315 28.1864C34.2194 28.0823 34.1463 27.9596 34.1002 27.8259C34.0884 27.7918 34.081 27.7568 34.0727 27.7214C34.0439 27.5933 34.0395 27.4609 34.0595 27.3311C34.0635 27.3097 34.0639 27.2891 34.0683 27.2677C34.0727 27.248 34.0849 27.2309 34.0902 27.2112C34.1388 27.046 34.229 26.8959 34.3522 26.7755C34.3671 26.7611 34.3759 26.7422 34.3916 26.7287L34.396 26.7243L34.3934 26.7112L38.9307 22.6516ZM42.9679 24.0976C43.1129 24.5199 43.2389 24.9484 43.3459 25.3829C43.2387 24.9492 43.1126 24.5203 42.9679 24.0976ZM27.7324 27.0516H29.597L30.7564 28.5014L30.3408 30.3096L28.6652 31.1146L26.9865 30.3061L26.5695 28.4984L27.7324 27.0516ZM33.738 32.0369C33.8167 32.0325 33.8942 32.0404 33.9712 32.0544L33.9773 32.0557L33.9874 32.0426L40.0371 33.0654C40.0091 33.1442 39.9728 33.219 39.943 33.2973C39.7708 33.7477 39.5721 34.1876 39.348 34.6146C39.2652 34.7733 39.1787 34.9299 39.0886 35.0845C38.8426 35.5039 38.5719 35.9083 38.2779 36.2955C38.1717 36.4355 38.0627 36.5727 37.9507 36.7072C37.6382 37.0815 37.3036 37.4368 36.9488 37.7712C36.8216 37.8908 36.6915 38.0074 36.5585 38.1212C36.1913 38.4372 35.8056 38.7311 35.4035 39.0014C35.3335 39.0482 35.2679 39.0999 35.1975 39.1454L32.8503 33.4723L32.8569 33.4627L32.8551 33.4579C32.8464 33.4382 32.8437 33.4176 32.8363 33.3979C32.7923 33.2732 32.7722 33.1412 32.7772 33.009C32.779 32.9736 32.7799 32.9381 32.7851 32.9031C32.8068 32.7647 32.8565 32.6322 32.9312 32.5137C32.9509 32.4822 32.9741 32.4538 32.9969 32.4245C33.0793 32.3223 33.1802 32.2366 33.2944 32.1716C33.3132 32.1611 33.3289 32.1476 33.3482 32.1384C33.4746 32.0776 33.6067 32.043 33.738 32.0369ZM23.5399 32.0614L23.5455 32.0622C23.5587 32.0622 23.5718 32.0657 23.5858 32.0666C23.7794 32.0796 23.9653 32.1471 24.1222 32.2613C24.1522 32.2829 24.1808 32.3059 24.2079 32.3304C24.352 32.4601 24.4565 32.6278 24.5094 32.8143C24.5129 32.8274 24.519 32.8401 24.5225 32.8537C24.5706 33.0632 24.5509 33.2824 24.4656 33.4797L24.4634 33.485L24.4809 33.5069L22.1578 39.1231C22.09 39.0793 22.0265 39.0303 21.9605 38.9852C21.5584 38.7151 21.1727 38.4213 20.8055 38.1054C20.673 37.9911 20.5431 37.874 20.4157 37.7541C20.0638 37.4229 19.7319 37.0711 19.4217 36.7006C19.3079 36.5641 19.1971 36.4254 19.0892 36.2846C18.801 35.906 18.5351 35.511 18.2929 35.1016C18.1976 34.94 18.1061 34.7762 18.0186 34.6102C17.7976 34.1922 17.601 33.7617 17.4297 33.3209C17.3991 33.2417 17.3624 33.1652 17.3335 33.0851L23.3303 32.0675L23.3404 32.0806L23.3465 32.0784C23.4106 32.0668 23.4748 32.0611 23.5399 32.0614ZM28.628 34.5293C28.6534 34.5284 28.6779 34.535 28.7032 34.5359C28.816 34.5404 28.9272 34.564 29.0322 34.6054C29.0559 34.6146 29.0812 34.6186 29.104 34.6299V34.6308C29.2985 34.7227 29.4584 34.8745 29.5603 35.0639L29.5629 35.0692H29.5861L32.5423 40.4124C32.4215 40.4526 32.2986 40.4881 32.1765 40.5244C32.032 40.5674 31.8868 40.6078 31.7408 40.6456C31.617 40.6779 31.494 40.7112 31.3689 40.7396C31.3147 40.7523 31.2595 40.7597 31.2044 40.7711C30.602 40.8996 29.9906 40.9817 29.3757 41.0166C29.2532 41.0236 29.1315 41.0319 29.009 41.0354C28.3775 41.0525 27.7455 41.0199 27.119 40.9378C26.9965 40.9221 26.874 40.9006 26.7524 40.8809C26.1511 40.7839 25.5581 40.6413 24.9784 40.4544C24.9228 40.4364 24.8659 40.4229 24.8104 40.4041L27.76 35.0718H27.7644L27.7674 35.0666C27.7788 35.0456 27.7959 35.0294 27.8085 35.0097C27.8786 34.8997 27.9685 34.8037 28.0737 34.7266C28.1095 34.7004 28.1475 34.6765 28.1874 34.6549C28.3031 34.5938 28.4293 34.5549 28.5593 34.5402C28.5829 34.5381 28.6044 34.5302 28.628 34.5293ZM33.7769 43.2163C33.3088 43.3831 32.8337 43.5265 32.3515 43.6464C32.8334 43.5262 33.309 43.3827 33.7769 43.2163Z" fill="white"/>
</g>
<defs>
<clipPath id="clip0_4475_621">
<rect width="56" height="56" fill="white" transform="translate(0.666016)"/>
</clipPath>
</defs>
</svg>
