<svg width="64" height="64" viewBox="0 0 64 64" fill="none" xmlns="http://www.w3.org/2000/svg">
<path d="M26.9793 6.85718L11.5666 10.8827L7.31867 26.3843L12.6564 31.8332L7.25195 37.1932L11.2552 52.7615L26.6012 57.0539L32.0056 51.694L37.3211 57.1429L52.7337 53.1174L56.9817 37.6158L51.6662 32.1668L57.0706 26.8069L53.0673 11.2386L37.7214 6.94614L32.317 12.3061L26.9793 6.85718ZM17.5271 13.8629L25.6448 11.7278L29.2033 15.3753L24.0213 20.5128L17.5271 13.8629ZM35.3417 15.442L38.9446 11.8613L47.0179 14.1298L40.4125 20.6908C40.4347 20.6685 35.3417 15.442 35.3417 15.442ZM12.1893 25.1166L14.4356 16.9544L20.9298 23.6043L15.7478 28.7418L12.1893 25.1166ZM43.4817 23.8044L50.0871 17.2435L52.2 25.4502L48.597 29.0309C48.5748 29.0309 43.4817 23.8044 43.4817 23.8044ZM27.0682 23.671L32.2502 18.5334L37.3433 23.7599L32.1613 28.8975L27.0682 23.671ZM18.7948 31.8777L23.9768 26.7402L29.0699 31.9667L23.8878 37.1042L18.7948 31.8777ZM35.2082 32.0112L40.3903 26.8736L45.4833 32.1001L40.3013 37.2377C40.3013 37.2599 35.2082 32.0112 35.2082 32.0112ZM12.1004 38.5499L15.7033 34.9691L20.7964 40.1957L14.2132 46.7566C14.191 46.7566 12.1004 38.5499 12.1004 38.5499ZM26.9348 40.2401L32.1168 35.1026L37.2099 40.3291L32.0278 45.4666L26.9348 40.2401ZM43.3482 40.3736L48.5303 35.236L52.0888 38.8835L49.8647 47.0457C49.8425 47.0457 43.3482 40.3736 43.3482 40.3736ZM17.2379 49.8703L23.8211 43.3093L28.9142 48.5358L25.3112 52.1165L17.2379 49.8703ZM35.0748 48.6025L40.2568 43.465L46.751 50.1149L38.6333 52.25L35.0748 48.6025Z" fill="url(#paint0_linear_4475_637)"/>
<defs>
<linearGradient id="paint0_linear_4475_637" x1="19.4283" y1="-2.85711" x2="57.1426" y2="57.1429" gradientUnits="userSpaceOnUse">
<stop stop-color="#C05584"/>
<stop offset="1" stop-color="#207386"/>
</linearGradient>
</defs>
</svg>
