<svg width="57" height="56" viewBox="0 0 57 56" fill="none" xmlns="http://www.w3.org/2000/svg">
<path d="M50.1549 11.4039C40.9897 -0.464616 23.9372 -2.65562 12.0683 6.51132C0.201105 15.6783 -1.98771 32.7307 7.17923 44.5979C16.3479 56.4646 33.4017 58.6521 45.2671 49.4834C57.1295 40.3165 59.3187 23.2693 50.1549 11.4039Z" fill="#F37036"/>
<path d="M40.5126 10.5717C39.5779 10.6465 38.6916 11.0184 37.9834 11.6331C37.1547 12.3528 36.6258 13.357 36.5011 14.4476C36.3763 15.5381 36.6648 16.6358 37.3097 17.524C37.9539 18.4125 38.9077 19.0273 39.9829 19.2471C41.058 19.467 42.1766 19.276 43.1179 18.7119H43.1188L43.187 18.7801C43.4971 18.6025 43.7856 18.3896 44.0467 18.1457C44.8525 17.2935 45.2958 16.1615 45.2831 14.9887C45.2703 13.8159 44.8026 12.6939 43.9785 11.8593V11.8584L40.1092 15.7036L40.041 15.6358L43.9102 11.7889C43.4623 11.3571 42.9278 11.0254 42.3421 10.8157C41.7563 10.606 41.1328 10.5232 40.5126 10.5726V10.5717ZM35.4183 16.866C33.5633 16.863 30.5345 18.9656 23.139 26.3611L23.1758 26.3987C23.1355 26.3847 23.0948 26.3834 23.0948 26.3834L20.3106 29.1432C20.2391 29.2112 20.1918 29.3007 20.1758 29.3981C20.1599 29.4954 20.1762 29.5954 20.2222 29.6826C20.2683 29.7699 20.3416 29.8397 20.431 29.8815C20.5204 29.9233 20.621 29.9347 20.7175 29.914L25.4923 28.8955C25.5136 28.8759 25.5278 28.8497 25.5326 28.8212L25.6385 28.9305L24.011 30.5449H23.9322L14.2696 40.2837L17.3697 43.2692C17.4563 43.3476 17.5657 43.3962 17.6819 43.4079C17.7981 43.4196 17.915 43.3939 18.0155 43.3344C18.1168 43.2754 18.1979 43.1872 18.2483 43.0814C18.2986 42.9755 18.3158 42.8569 18.2977 42.7411L17.8448 40.7724C17.8164 40.7329 17.801 40.6854 17.801 40.6367C17.801 40.5881 17.8164 40.5406 17.8448 40.5011C22.0772 38.4834 26.0132 35.8951 29.5427 32.8085L27.5587 30.8236L27.5963 30.8175L26.4194 29.641L26.4947 29.5649L26.5743 29.6463L26.5332 29.6861L29.6556 32.8768V32.8755C35.6406 27.2081 39.8887 22.6524 38.784 19.5864C38.7337 19.2198 38.5634 18.8801 38.2997 18.6204V18.6222C38.2326 18.5726 38.1619 18.5278 38.0884 18.4883C38.0521 18.4498 38.0202 18.4104 37.9817 18.3728L37.9528 18.4017C37.8715 18.3525 37.7863 18.3101 37.6982 18.2748L37.8246 18.147C37.0388 17.447 36.3896 16.8678 35.4183 16.8652V16.866ZM14.2022 40.3419L11.9399 42.6046V42.6064C11.8587 42.6566 11.7956 42.7314 11.7597 42.8199C11.7238 42.9083 11.7169 43.0059 11.74 43.0985C11.7623 43.1912 11.8132 43.2744 11.8856 43.3363C11.9579 43.3983 12.048 43.4359 12.1429 43.4437L17.6869 43.8265L14.2022 40.3419Z" fill="white"/>
<path d="M40.8943 10.1981C39.6245 10.1967 38.4052 10.6949 37.4997 11.585C36.8556 12.2444 36.4145 13.075 36.2292 13.9779C36.0438 14.8809 36.1219 15.8181 36.4541 16.6779C34.3799 15.7898 31.5738 17.3386 22.8452 26.0654C22.8391 26.0788 22.8337 26.0925 22.829 26.1065C22.8111 26.1144 22.7937 26.1234 22.777 26.1336L20.0168 28.9179C19.8845 29.0477 19.7976 29.2168 19.769 29.3999C19.7404 29.5831 19.7716 29.7706 19.858 29.9346C19.935 30.0644 20.0442 30.1723 20.175 30.2477C20.3058 30.3231 20.4538 30.3635 20.6048 30.3651L20.7417 30.2763L24.4272 29.4901L22.6641 31.2694C22.6541 31.2929 22.6462 31.3172 22.6405 31.3421L13.9998 40.0041C13.9654 40.0331 13.9369 40.0685 13.9158 40.1082L11.6907 42.3351C11.58 42.4523 11.5043 42.5981 11.4722 42.7561C11.4402 42.9141 11.4532 43.0779 11.5096 43.2289C11.5678 43.3789 11.6663 43.5098 11.7941 43.6075C11.9219 43.7051 12.0741 43.7656 12.2341 43.7824L17.7545 44.1674C17.8488 44.1346 17.9291 44.0705 17.982 43.9858C18.0292 43.9198 18.0546 43.8406 18.0546 43.7594C18.0546 43.6782 18.0292 43.5991 17.982 43.533L17.9706 43.5221C18.09 43.46 18.1951 43.3735 18.279 43.2683C18.3676 43.1532 18.4295 43.0199 18.4602 42.8779C18.4909 42.736 18.4897 42.589 18.4567 42.4476L18.0262 40.6157C22.1564 38.642 26.0262 36.1642 29.5473 33.2391C29.5813 33.2589 29.6178 33.274 29.6558 33.2841C29.7669 33.2758 29.871 33.2281 29.9498 33.1494C35.8779 27.5362 39.3626 23.6897 39.3626 20.636C39.3757 20.2124 39.3119 19.7899 39.174 19.3891C39.7084 19.6103 40.2782 19.7333 40.8562 19.7522L40.8497 19.754C41.6458 19.73 42.4242 19.5122 43.1172 19.1196L43.119 19.1201C43.2087 19.1467 43.3053 19.1381 43.3889 19.096C43.7234 18.899 44.0283 18.6557 44.2945 18.3732C44.7458 17.9306 45.1042 17.4025 45.349 16.8197C45.5937 16.2369 45.7198 15.6112 45.7199 14.9791C45.7199 14.3471 45.5938 13.7214 45.3492 13.1386C45.1045 12.5558 44.7461 12.0277 44.295 11.585C44.2788 11.5705 44.2615 11.5572 44.2433 11.5452C43.3426 10.6806 42.1423 10.1981 40.8938 10.1986L40.8943 10.1981ZM40.8562 10.9734C41.7403 10.9787 42.5985 11.2727 43.3001 11.8107L39.7703 15.3619C39.7584 15.3755 39.7473 15.3898 39.7371 15.4048C39.6735 15.4692 39.6362 15.555 39.6325 15.6454C39.6325 15.7001 39.6448 15.754 39.6685 15.8033C39.6922 15.8525 39.7267 15.8958 39.7695 15.9298H39.7703L42.4391 18.5986C41.7086 18.9174 40.8989 19.008 40.116 18.8587C39.3331 18.7093 38.6136 18.3269 38.0518 17.7616C36.9205 16.6241 36.5923 14.9161 37.1974 13.4343C37.8025 11.9512 39.2449 10.9821 40.8562 10.9734ZM43.9712 12.4749C44.5484 13.1731 44.863 14.0513 44.8607 14.9572C44.859 16.0185 44.436 17.0357 43.6847 17.7852C43.534 17.927 43.3735 18.0578 43.2043 18.1768L41.0505 16.0562L40.6292 15.6349L40.7451 15.519L43.9708 12.474L43.9712 12.4749ZM43.8111 14.3093C43.7319 14.2844 43.6464 14.2892 43.5705 14.3229C43.4954 14.3617 43.4387 14.4287 43.413 14.5092C43.4003 14.5494 43.3957 14.5917 43.3995 14.6337C43.4032 14.6757 43.4152 14.7165 43.4348 14.7538C43.5124 14.9173 43.543 15.0991 43.5231 15.279C43.5032 15.4589 43.4338 15.6297 43.3224 15.7723C43.2939 15.7998 43.2715 15.8331 43.2568 15.8699C43.2421 15.9067 43.2354 15.9462 43.2371 15.9858C43.2388 16.0663 43.2677 16.1433 43.3224 16.2011C43.3807 16.2233 43.4452 16.2233 43.5035 16.2011C43.5561 16.2142 43.6113 16.2127 43.6631 16.1967C43.715 16.1808 43.7614 16.151 43.7975 16.1105C43.9838 15.8823 44.1018 15.606 44.1378 15.3136C44.1738 15.0213 44.1264 14.7246 44.001 14.4581V14.4598C43.9582 14.3881 43.8907 14.3346 43.8111 14.3093ZM35.3774 17.2506C35.9053 17.2686 36.4133 17.4568 36.8255 17.787C36.3816 17.851 35.9702 18.0566 35.6526 18.3732L25.6745 28.3067L23.7163 26.3484C28.891 21.1982 32.055 18.508 34.022 17.6264C34.4273 17.3712 34.8985 17.2409 35.3774 17.2506ZM37.1121 18.5456C37.4471 18.5459 37.7684 18.6786 38.0059 18.9149C38.1319 19.0336 38.2314 19.1777 38.2977 19.3376C38.364 19.4976 38.3956 19.6697 38.3905 19.8428C38.3847 20.0153 38.3435 20.1847 38.2693 20.3405C38.1952 20.4963 38.0897 20.6352 37.9595 20.7484L27.3502 29.9823L26.2052 28.8374L36.2183 18.9149C36.4559 18.6788 36.7772 18.5458 37.1121 18.5456ZM38.422 21.476C37.6826 24.4081 33.7639 28.3811 29.6777 32.2416L28.0252 30.5909L38.422 21.476ZM23.1392 26.9268L23.2591 27.0449L24.796 28.5819L20.5829 29.4831L23.1392 26.9268ZM25.6737 29.4818L25.6754 29.4836L26.1864 30.0064L26.1943 30.0431L26.2284 30.0484L26.3369 30.1595L26.6957 30.527L24.3397 30.8157L25.6737 29.4818ZM27.3655 31.2651L28.9308 32.8296C25.4694 35.7078 21.6711 38.1548 17.6193 40.1166C17.4877 40.1792 17.382 40.2855 17.32 40.4174C17.258 40.5492 17.2436 40.6985 17.2793 40.8397L17.7322 42.8085C17.7488 42.8316 17.7578 42.8594 17.7578 42.8879C17.7578 42.9164 17.7488 42.9442 17.7322 42.9673C17.7073 42.9896 17.675 43.002 17.6416 43.002C17.6082 43.002 17.5759 42.9896 17.551 42.9673L14.8814 40.2758L23.1099 31.9266L27.3655 31.2651ZM14.2698 40.8638L14.65 41.2199L16.6152 43.1852L12.2332 42.9017L14.2698 40.8638Z" fill="#F37036"/>
</svg>
