<svg width="56" height="56" viewBox="0 0 56 56" fill="none" xmlns="http://www.w3.org/2000/svg">
<g clipPath="url(#clip0_4475_686)">
<path d="M27.9996 54.6634C13.2965 54.6634 1.33398 42.7022 1.33398 27.9982C1.33442 13.2947 13.2965 1.3335 28 1.3335C42.7035 1.3335 54.6657 13.2956 54.6657 27.9991C54.6657 42.7022 42.7031 54.663 28 54.663L27.9996 54.6634Z" fill="#85EA2D"/>
<path d="M17.6313 18.9486C17.5446 19.9067 17.6628 20.8972 17.5993 21.8659C17.5236 22.8358 17.4051 23.7939 17.2108 24.7516C16.9417 26.1192 16.0908 27.153 14.9183 28.0145C17.2012 29.5002 17.4589 31.8041 17.6098 34.1408C17.6851 35.4008 17.6527 36.6717 17.7822 37.9199C17.8789 38.889 18.2556 39.1371 19.2574 39.1686C19.6665 39.1795 20.0861 39.1686 20.5603 39.1686V42.1619C17.5993 42.6677 15.1554 41.8286 14.5517 39.3199C14.3532 38.3982 14.2309 37.4617 14.1859 36.5199C14.1212 35.5194 14.2284 34.5175 14.1536 33.5169C13.9383 30.7707 13.5826 29.845 10.9563 29.7155V26.303C11.1493 26.2592 11.3326 26.2269 11.5259 26.2054C12.9688 26.1302 13.5826 25.6883 13.8946 24.2673C14.0443 23.4678 14.1344 22.6582 14.1641 21.8453C14.2721 20.2839 14.2288 18.6909 14.4979 17.1404C14.8741 14.9118 16.2522 13.8347 18.5465 13.7052C19.1922 13.6728 19.8494 13.7052 20.5923 13.7052V16.7633C20.2799 16.7852 20.0104 16.8276 19.7308 16.8276C17.8679 16.7629 17.7712 17.3981 17.6313 18.9486ZM21.2166 26.0331H21.1733C20.0961 25.9792 19.1704 26.8188 19.1161 27.8959C19.0627 28.9831 19.9023 29.9097 20.9794 29.9627H21.1085C22.1742 30.0274 23.0891 29.2084 23.1542 28.1427V28.0355C23.1761 26.9479 22.3042 26.0549 21.2166 26.0331ZM27.9672 26.0331C26.9233 26.0007 26.0509 26.8188 26.0186 27.8526C26.0186 27.9178 26.0186 27.9712 26.0291 28.0355C26.0291 29.2097 26.8257 29.9631 28.0319 29.9631C29.2162 29.9631 29.9596 29.1879 29.9596 27.9712C29.9486 26.7978 29.162 26.0221 27.9672 26.0331ZM34.8801 26.0331C34.3514 26.0236 33.8402 26.2228 33.4573 26.5875C33.0744 26.9522 32.8506 27.4531 32.8344 27.9817C32.8336 28.242 32.8844 28.5 32.9836 28.7407C33.0829 28.9813 33.2288 29.2 33.4129 29.3841C33.597 29.5682 33.8157 29.7141 34.0564 29.8134C34.2971 29.9127 34.555 29.9634 34.8154 29.9627H34.8372C35.8278 30.1351 36.8292 29.1769 36.8939 28.025C36.9473 26.9588 35.9791 26.0331 34.8801 26.0331ZM44.366 26.1945C43.1169 26.1407 42.4918 25.7207 42.1803 24.5364C41.9867 23.778 41.8678 23.0026 41.8254 22.2211C41.7388 20.7782 41.7493 19.3249 41.6526 17.882C41.4269 14.4581 38.9502 13.2633 35.3539 13.8548V16.8263C35.9244 16.8263 36.3659 16.8263 36.8073 16.8372C37.5721 16.8477 38.1535 17.1391 38.2287 17.9896C38.304 18.7649 38.304 19.5506 38.3792 20.3368C38.5306 21.8987 38.6164 23.4811 38.8854 25.0207C39.1226 26.2912 39.9949 27.2388 41.0817 28.0136C39.1764 29.295 38.6159 31.1256 38.5192 33.1822C38.4659 34.5923 38.4335 36.0137 38.3582 37.4352C38.2935 38.7271 37.8416 39.1471 36.5382 39.1795C36.1729 39.19 35.8172 39.2224 35.4082 39.2442V42.291C36.1729 42.291 36.8725 42.3347 37.5721 42.291C39.7469 42.1619 41.0607 41.1071 41.4921 38.9962C41.6745 37.8333 41.7817 36.6599 41.8145 35.4861C41.8893 34.4099 41.8792 33.3222 41.9869 32.2565C42.1483 30.5874 42.9126 29.8988 44.5812 29.7907C44.7393 29.772 44.8948 29.736 45.045 29.6836V26.2706C44.765 26.2382 44.5707 26.2054 44.366 26.1945ZM28 2.6688C41.9899 2.6688 53.3312 14.0088 53.3312 27.9992C53.3312 41.9891 41.9899 53.33 28 53.33C14.0105 53.33 2.66963 41.9891 2.66963 27.9987C2.66963 14.0101 14.0105 2.6688 28 2.6688ZM28 0.000488293C12.5606 5.07926e-05 0 12.5607 0 28.0001C0 43.4385 12.5606 55.9992 28 55.9992C43.4394 55.9992 56 43.4386 56 27.9992C56 12.5598 43.4389 0.000925793 28 0.000925793V0.000488293Z" fill="#173647"/>
</g>
<defs>
<clipPath id="clip0_4475_686">
<rect width="56" height="56" fill="white"/>
</clipPath>
</defs>
</svg>
