<svg width="24" height="24" viewBox="0 0 24 24" fill="none" xmlns="http://www.w3.org/2000/svg">
<path d="M21.4864 7.41334L18.3998 5.87334V3.46668C18.3998 2.90088 18.175 2.35826 17.7749 1.95818C17.3749 1.5581 16.8322 1.33334 16.2664 1.33334H7.7331C7.16731 1.33334 6.62468 1.5581 6.22461 1.95818C5.82453 2.35826 5.59977 2.90088 5.59977 3.46668V5.87334L2.5131 7.41334C2.1558 7.59007 1.85556 7.86396 1.64685 8.20356C1.43813 8.54317 1.32939 8.93474 1.3331 9.33334V21.9533C1.3331 22.1425 1.40825 22.324 1.54203 22.4577C1.67581 22.5915 1.85725 22.6667 2.04643 22.6667H21.9531C22.1423 22.6667 22.3237 22.5915 22.4575 22.4577C22.5913 22.324 22.6664 22.1425 22.6664 21.9533V9.33334C22.6701 8.93474 22.5614 8.54317 22.3527 8.20356C22.144 7.86396 21.8437 7.59007 21.4864 7.41334ZM5.59977 21.2467H2.7531V9.33334C2.7467 9.196 2.78051 9.05978 2.85037 8.94137C2.92024 8.82295 3.02313 8.72749 3.14643 8.66668L5.59977 7.46001V21.2467ZM14.1331 21.2467H9.86643V18.4H14.1331V21.2467ZM16.9798 21.2467H15.5531V17.6867C15.5531 17.4975 15.4779 17.3161 15.3442 17.1823C15.2104 17.0485 15.029 16.9733 14.8398 16.9733H9.1531C8.96391 16.9733 8.78247 17.0485 8.6487 17.1823C8.51492 17.3161 8.43977 17.4975 8.43977 17.6867V21.24H7.01977V3.46668C7.01977 3.373 7.03822 3.28024 7.07407 3.1937C7.10991 3.10715 7.16246 3.02851 7.2287 2.96227C7.29494 2.89603 7.37357 2.84349 7.46012 2.80764C7.54667 2.77179 7.63942 2.75334 7.7331 2.75334H16.2664C16.3601 2.75334 16.4529 2.77179 16.5394 2.80764C16.626 2.84349 16.7046 2.89603 16.7708 2.96227C16.8371 3.02851 16.8896 3.10715 16.9255 3.1937C16.9613 3.28024 16.9798 3.373 16.9798 3.46668V21.2467ZM21.2464 21.2467H18.3998V7.46001L20.8531 8.66668C20.9764 8.72749 21.0793 8.82295 21.1492 8.94137C21.219 9.05978 21.2528 9.196 21.2464 9.33334V21.2467Z" fill="url(#paint0_linear_5602_239)"/>
<path d="M12.713 12.7134H15.5596V14.1334H12.713V12.7134ZM8.44629 12.7134H11.293V14.1334H8.44629V12.7134ZM12.713 9.86669H15.5596V11.2867H12.713V9.86669ZM8.44629 9.86669H11.293V11.2867H8.44629V9.86669ZM12.713 7.02002H15.5596V8.44002H12.713V7.02002ZM8.44629 7.02002H11.293V8.44002H8.44629V7.02002ZM12.713 4.18002H15.5596V5.60002H12.713V4.18002ZM8.44629 4.18002H11.293V5.60002H8.44629V4.18002Z" fill="url(#paint1_linear_5602_239)"/>
<defs>
<linearGradient id="paint0_linear_5602_239" x1="11.9998" y1="1.33334" x2="11.9998" y2="22.6667" gradientUnits="userSpaceOnUse">
<stop stop-color="#3FD98B"/>
<stop offset="1" stop-color="#21AF68"/>
</linearGradient>
<linearGradient id="paint1_linear_5602_239" x1="12.003" y1="4.18002" x2="12.003" y2="14.1334" gradientUnits="userSpaceOnUse">
<stop stop-color="#3FD98B"/>
<stop offset="1" stop-color="#21AF68"/>
</linearGradient>
</defs>
</svg>
