<svg width="48" height="48" viewBox="0 0 48 48" fill="none" xmlns="http://www.w3.org/2000/svg">
<rect width="48" height="48" rx="24" fill="#01F1E3" fill-opacity="0.1"/>
<path fill-rule="evenodd" clip-rule="evenodd" d="M35 34.75H13V32.75H35V34.75Z" fill="#01F1E3"/>
<path d="M20.75 18.7499H27.75V13.9999C27.75 13.5857 27.4142 13.2499 27 13.2499H15C14.5858 13.2499 14.25 13.5857 14.25 13.9999V17.2499H18V18.7499H14.25V21.2499H18V22.7499H14.25V25.2499H18V26.7499H14.25V33.9999C14.25 34.4142 14.5858 34.7499 15 34.7499H20.878C20.7951 34.5154 20.75 34.2629 20.75 33.9999V18.7499Z" fill="#01F1E3"/>
<path d="M33 34.75C33.4142 34.75 33.75 34.4142 33.75 34V21C33.75 20.5858 33.4142 20.25 33 20.25H23C22.5858 20.25 22.25 20.5858 22.25 21V34C22.25 34.4142 22.5858 34.75 23 34.75H33ZM26 24.25H30V25.75H26V24.25ZM26 27.25H30V28.75H26V27.25ZM27 31H29V34H27V31Z" fill="#01F1E3"/>
</svg>
