<svg width="49" height="48" viewBox="0 0 49 48" fill="none" xmlns="http://www.w3.org/2000/svg">
<rect x="0.333984" width="48" height="48" rx="24" fill="#FF708B" fill-opacity="0.2"/>
<path fill-rule="evenodd" clip-rule="evenodd" d="M14.584 34.75V17.25H13.334V15.25H19.9222C20.8203 14.0052 22.5118 13.25 24.334 13.25C26.1561 13.25 27.8477 14.0052 28.7458 15.25H35.334V17.25H34.084V34.75H27.084V28C27.084 27.5858 26.7482 27.25 26.334 27.25L22.334 27.25C22.1351 27.25 21.9443 27.329 21.8037 27.4697C21.663 27.6103 21.584 27.8011 21.584 28V34.75H14.584ZM23.584 19H22.084V24H23.584V22.25H25.084V24H26.584V19H25.084V20.75H23.584V19ZM17.834 20.75H19.834V19.25H17.834V20.75ZM17.834 24.75H19.834V23.25H17.834V24.75ZM17.834 28.75H19.834V27.25H17.834V28.75ZM30.834 20.75H28.834V19.25H30.834V20.75ZM30.834 24.75H28.834V23.25H30.834V24.75ZM30.834 28.75H28.834V27.25H30.834V28.75Z" fill="#FF708B"/>
<path d="M25.584 28.75V34.75H23.084V28.75L25.584 28.75Z" fill="#FF708B"/>
</svg>
