<svg width="49" height="48" viewBox="0 0 49 48" fill="none" xmlns="http://www.w3.org/2000/svg">
<rect x="0.666016" width="48" height="48" rx="24" fill="#8676FF" fill-opacity="0.2"/>
<path fill-rule="evenodd" clip-rule="evenodd" d="M13.666 33.75C13.666 33.1977 14.1137 32.75 14.666 32.75H34.666C35.2183 32.75 35.666 33.1977 35.666 33.75C35.666 34.3023 35.2183 34.75 34.666 34.75H14.666C14.1137 34.75 13.666 34.3023 13.666 33.75Z" fill="#8676FF"/>
<path fill-rule="evenodd" clip-rule="evenodd" d="M21.666 21C21.666 20.4477 22.1137 20 22.666 20H26.666C27.2183 20 27.666 20.4477 27.666 21C27.666 21.5523 27.2183 22 26.666 22H22.666C22.1137 22 21.666 21.5523 21.666 21Z" fill="#8676FF"/>
<path fill-rule="evenodd" clip-rule="evenodd" d="M21.666 27C21.666 26.4477 22.1137 26 22.666 26H26.666C27.2183 26 27.666 26.4477 27.666 27C27.666 27.5523 27.2183 28 26.666 28H22.666C22.1137 28 21.666 27.5523 21.666 27Z" fill="#8676FF"/>
<path d="M33.666 34.7501C34.0802 34.7501 34.416 34.4143 34.416 34.0001V19.4493C34.416 18.9314 34.4164 18.4865 34.3779 18.1154C34.3365 17.7167 34.2462 17.347 34.0342 16.9913C33.8246 16.6398 33.5407 16.3778 33.208 16.1359C32.8918 15.9058 32.4856 15.6622 32.001 15.3722L30.6299 14.5519C29.8733 14.099 29.2374 13.7186 28.7129 13.4962C28.1756 13.2684 27.5622 13.1205 26.957 13.4113C26.3233 13.7159 26.0959 14.3061 26.0029 14.8702C25.9158 15.3992 25.916 16.0969 25.916 16.9025L25.916 34.0001C25.916 34.4143 26.2518 34.7501 26.666 34.7501H33.666ZM30.1611 21.0001C29.6116 20.9999 29.1662 20.5522 29.166 20.0001C29.166 19.448 29.6115 19.0003 30.1611 19.0001H30.1709C30.7205 19.0003 31.166 19.448 31.166 20.0001C31.1659 20.5522 30.7204 20.9999 30.1709 21.0001H30.1611ZM30.1611 25.0001C29.6116 24.9999 29.1662 24.5522 29.166 24.0001C29.166 23.448 29.6115 23.0003 30.1611 23.0001H30.1709C30.7205 23.0003 31.166 23.448 31.166 24.0001C31.1659 24.5522 30.7204 24.9999 30.1709 25.0001H30.1611ZM30.1611 29.0001C29.6116 28.9999 29.1662 28.5522 29.166 28.0001C29.166 27.448 29.6115 27.0003 30.1611 27.0001H30.1709C30.7205 27.0003 31.166 27.448 31.166 28.0001C31.1659 28.5522 30.7204 28.9999 30.1709 29.0001H30.1611Z" fill="#8676FF"/>
<path d="M15.666 34.7502C15.2518 34.7502 14.916 34.4145 14.916 34.0002L14.916 19.4495C14.916 18.9316 14.9156 18.4867 14.9541 18.1155C14.9955 17.7168 15.0858 17.3471 15.2978 16.9915C15.5075 16.6399 15.7914 16.378 16.124 16.136C16.4402 15.906 16.8464 15.6623 17.3311 15.3723L18.7021 14.552C19.4588 14.0991 20.0946 13.7187 20.6191 13.4963C21.1565 13.2685 21.7699 13.1207 22.375 13.4114C23.0087 13.716 23.2362 14.3062 23.3291 14.8704C23.4162 15.3993 23.4161 16.097 23.416 16.9026L23.416 34.0002C23.416 34.4145 23.0802 34.7502 22.666 34.7502H15.666ZM19.1709 21.0002C19.7204 21 20.1659 20.5523 20.166 20.0002C20.166 19.4481 19.7205 19.0005 19.1709 19.0002H19.1611C18.6115 19.0005 18.166 19.4481 18.166 20.0002C18.1661 20.5523 18.6116 21 19.1611 21.0002H19.1709ZM19.1709 25.0002C19.7204 25 20.1659 24.5523 20.166 24.0002C20.166 23.4481 19.7205 23.0005 19.1709 23.0002H19.1611C18.6115 23.0005 18.166 23.4481 18.166 24.0002C18.1661 24.5523 18.6116 25 19.1611 25.0002H19.1709ZM19.1709 29.0002C19.7204 29 20.1659 28.5523 20.166 28.0002C20.166 27.4481 19.7205 27.0005 19.1709 27.0002H19.1611C18.6115 27.0005 18.166 27.4481 18.166 28.0002C18.1661 28.5523 18.6116 29 19.1611 29.0002H19.1709Z" fill="#8676FF"/>
</svg>
