<svg width="48" height="48" viewBox="0 0 48 48" fill="none" xmlns="http://www.w3.org/2000/svg">
<rect width="48" height="48" rx="24" fill="#0548F4" fill-opacity="0.2"/>
<path fill-rule="evenodd" clip-rule="evenodd" d="M14.5 33.75C14.5 33.1977 14.9477 32.75 15.5 32.75H32.5C33.0523 32.75 33.5 33.1977 33.5 33.75C33.5 34.3023 33.0523 34.75 32.5 34.75H15.5C14.9477 34.75 14.5 34.3023 14.5 33.75Z" fill="#0548F4"/>
<path d="M31.75 18C31.75 17.1566 31.7072 16.4285 31.5732 15.8184C31.4373 15.1996 31.1976 14.6546 30.7715 14.2285C30.3454 13.8024 29.8004 13.5627 29.1816 13.4268C28.5715 13.2928 27.8434 13.25 27 13.25H21C20.1566 13.25 19.4285 13.2928 18.8184 13.4268C18.1996 13.5627 17.6546 13.8024 17.2285 14.2285C16.8024 14.6546 16.5627 15.1996 16.4268 15.8184C16.2928 16.4285 16.25 17.1566 16.25 18L16.25 34H31.75V18ZM22.5 18.75C22.0858 18.75 21.75 18.4142 21.75 18C21.75 17.5858 22.0858 17.25 22.5 17.25H25.5C25.9142 17.25 26.25 17.5858 26.25 18C26.25 18.4142 25.9142 18.75 25.5 18.75H22.5ZM22.5 22.25C22.0858 22.25 21.75 21.9142 21.75 21.5C21.75 21.0858 22.0858 20.75 22.5 20.75H25.5C25.9142 20.75 26.25 21.0858 26.25 21.5C26.25 21.9142 25.9142 22.25 25.5 22.25H22.5ZM22.5 25.75C22.0858 25.75 21.75 25.4142 21.75 25C21.75 24.5858 22.0858 24.25 22.5 24.25H25.5C25.9142 24.25 26.25 24.5858 26.25 25C26.25 25.4142 25.9142 25.75 25.5 25.75H22.5ZM20.75 30.75C20.75 30.3231 20.7682 29.9373 20.8291 29.6045C20.8903 29.2699 21.0047 28.9321 21.2402 28.6494C21.7293 28.0625 22.4912 28 23.167 28H24.833C25.5088 28 26.2707 28.0625 26.7598 28.6494C26.9953 28.9321 27.1097 29.2699 27.1709 29.6045C27.2318 29.9373 27.25 30.3231 27.25 30.75V33.75H25.75V30.75C25.75 30.3496 25.7314 30.0714 25.6953 29.874C25.6595 29.6789 25.6162 29.6199 25.6074 29.6094C25.6039 29.6052 25.5995 29.6006 25.5879 29.5938C25.5737 29.5854 25.5428 29.5701 25.4844 29.5547C25.3578 29.5213 25.1578 29.5 24.833 29.5H23.167C22.8422 29.5 22.6422 29.5213 22.5156 29.5547C22.4572 29.5701 22.4263 29.5854 22.4121 29.5938C22.4005 29.6006 22.3961 29.6052 22.3926 29.6094C22.3838 29.6199 22.3405 29.6789 22.3047 29.874C22.2686 30.0714 22.25 30.3496 22.25 30.75V33.75H20.75V30.75Z" fill="#0548F4"/>
</svg>
